<?xml version="1.0" encoding="UTF-8"?>
<svg id="Layer_1" data-name="Layer 1" xmlns="http://www.w3.org/2000/svg" viewBox="0 0 235.29 235.29">
  <defs>
    <style>
      .cls-1 {
        fill: #fff;
      }

      .cls-1, .cls-2 {
        stroke-width: 0px;
      }

      .cls-2 {
        fill: #231f20;
      }
    </style>
  </defs>
  <g>
    <circle class="cls-1" cx="87.13" cy="87.13" r="77.13"/>
    <path class="cls-2" d="m87.13,174.22c-22.31,0-44.62-8.49-61.61-25.48C9.06,132.28,0,110.4,0,87.13S9.06,41.98,25.52,25.52,63.86,0,87.13,0s45.15,9.07,61.61,25.52h0s0,0,0,0c33.97,33.97,33.97,89.25,0,123.22-16.99,16.99-39.3,25.48-61.61,25.48Zm0-154.22c-17.93,0-34.79,6.98-47.47,19.66s-19.66,29.54-19.66,47.47,6.98,34.79,19.66,47.47c26.17,26.17,68.76,26.17,94.94,0,26.17-26.17,26.17-68.76,0-94.94h0c-12.68-12.68-29.54-19.66-47.47-19.66Z"/>
  </g>
  <rect class="cls-2" x="177.17" y="136.94" width="29.67" height="110.14" rx="14.83" ry="14.83" transform="translate(-79.53 192) rotate(-45)"/>
  <rect class="cls-2" x="141.59" y="140.13" width="19.43" height="22.34" transform="translate(-62.67 151.3) rotate(-45)"/>
</svg>