<?xml version="1.0" encoding="UTF-8"?>
<svg id="Layer_1" data-name="Layer 1" xmlns="http://www.w3.org/2000/svg" viewBox="0 0 461.67 421.2">
    <defs>
        <style>
            .cls-1 {
            fill: none;
            stroke: #fff;
            stroke-miterlimit: 10;
            stroke-width: 30px;
            }

            .cls-2 {
            fill: #fff;
            stroke-width: 0px;
            }
        </style>
    </defs>
    <circle class="cls-1" cx="156.88" cy="156.88" r="141.88"/>
    <rect class="cls-2" x="312" y="232.92" width="37.8" height="204.93" transform="translate(-140.24 332.21) rotate(-45)"/>
    <g>
        <path class="cls-2" d="m334.04,259.45c1.6-1.6,3.44-2.36,5.52-2.28,2.08.08,3.93.93,5.56,2.56s2.51,3.51,2.6,5.59-.68,3.92-2.28,5.52c-1.58,1.58-3.4,2.33-5.45,2.25-2.06-.08-3.92-.96-5.59-2.63s-2.52-3.5-2.59-5.56c-.08-2.06.67-3.87,2.25-5.45Z"/>
        <path class="cls-2" d="m397.65,257.57l-39.75,39.75c-4.16,4.16-8.49,6.29-13.01,6.39s-8.85-1.92-13.01-6.08c-1.74-1.74-3.2-3.6-4.39-5.57l7.98-7.98c1,1.42,1.95,2.58,2.86,3.48,3.04,3.04,6.18,2.95,9.41-.28l39.81-39.81,10.1,10.1Zm-1.15-20.66c1.51-1.51,3.26-2.25,5.24-2.21,1.99.04,3.85.92,5.59,2.66,1.74,1.74,2.63,3.61,2.67,5.59.04,1.98-.7,3.73-2.21,5.24-1.53,1.53-3.3,2.27-5.31,2.21-2.01-.06-3.86-.93-5.56-2.63s-2.57-3.55-2.63-5.56c-.06-2.01.68-3.78,2.21-5.31Z"/>
        <path class="cls-2" d="m398.66,313.13c1.23-1.23,1.59-2.81,1.08-4.74-.51-1.93-1.83-4.52-3.97-7.77-7.08-10.85-7.76-19.13-2.02-24.87,3.34-3.34,7.52-4.75,12.54-4.21,5.02.53,9.77,3.04,14.25,7.52,4.78,4.78,7.48,9.74,8.1,14.86.62,5.12-.88,9.48-4.48,13.08l-10.07-10.07c1.44-1.44,2.17-3.09,2.18-4.96.01-1.87-.97-3.79-2.94-5.77-1.7-1.7-3.39-2.62-5.09-2.79s-3.13.35-4.32,1.53c-1.11,1.11-1.49,2.54-1.12,4.28s1.56,4.12,3.57,7.12c2.01,3.01,3.56,5.68,4.65,8.03,3.37,7.27,2.65,13.31-2.16,18.11-3.44,3.44-7.69,4.74-12.77,3.92-5.08-.83-9.95-3.57-14.61-8.24-3.16-3.16-5.4-6.53-6.72-10.1-1.32-3.58-1.7-7.04-1.13-10.4.57-3.36,1.99-6.17,4.27-8.45l9.54,9.54c-1.7,1.88-2.4,3.91-2.12,6.1.28,2.18,1.45,4.31,3.52,6.38,1.93,1.93,3.75,3.02,5.47,3.27s3.17-.21,4.35-1.39Z"/>
    </g>
    <g>
        <path class="cls-2" d="m107.51,172.28h-31.4l-5.97,17.91h-19.04l32.35-86.9h16.59l32.53,86.9h-19.04l-6.03-17.91Zm-26.56-14.5h21.73l-10.92-32.53-10.8,32.53Z"/>
        <path class="cls-2" d="m152.58,125.61l.54,7.46c4.62-5.77,10.8-8.65,18.56-8.65,6.84,0,11.94,2.01,15.28,6.03,3.34,4.02,5.05,10.03,5.13,18.03v41.72h-17.25v-41.3c0-3.66-.8-6.32-2.39-7.97-1.59-1.65-4.24-2.48-7.94-2.48-4.85,0-8.5,2.07-10.92,6.21v45.54h-17.25v-64.58h16.23Z"/>
        <path class="cls-2" d="m229.27,165.78l11.94-40.17h18.5l-25.96,74.61-1.43,3.4c-3.86,8.44-10.23,12.65-19.1,12.65-2.51,0-5.05-.38-7.64-1.13v-13.07l2.63.06c3.26,0,5.7-.5,7.31-1.49,1.61-1,2.87-2.65,3.79-4.95l2.03-5.31-22.62-64.76h18.56l12,40.17Z"/>
    </g>
</svg>